# xmcd CD database file
#
# Track frame offsets:
#	150
#	14250
#	28248
#	38993
#	53272
#	66644
#	80350
#	92037
#	100834
#	114346
#	128000
#	140344
#	153834
#	168585
#	182061
#	195674
#	208257
#	219574
#	230703
#	243017
#	255169
#	268343
#	281193
#	293540
#
# Disc length: 4100 seconds
#
# Revision: 0
# Processed by: cddbd v1.5.2PL0 Copyright (c) Steve Scherf et al.
# Submitted via: CDex 1.70beta2
#
DISCID=57100218
DTITLE=Coleman Hawkins - Jazz Roads CD131 - Swing - Coleman Hawkins Vol.2 (1936-38)
DYEAR=2006
DGENRE=Jazz
TTITLE0=Coleman Hawkins acc. By The Berries - Love Cries
TTITLE1=Coleman Hawkins acc. By The Berries - Sorrow
TTITLE2=Coleman Hawkins acc. By The Berries - Tiger Rag
TTITLE3=Coleman Hawkins acc. By The Berries - It May Not Be True
TTITLE4=Coleman Hawkins acc. By The Ramblers (and his Quartet) - I Wanna Go Back To Harlem
TTITLE5=Coleman Hawkins acc. By The Ramblers (and his Quartet) - Consolation
TTITLE6=Coleman Hawkins acc. By The Ramblers (and his Quartet) - A Strange Fact
TTITLE7=Coleman Hawkins acc. By The Ramblers (and his Quartet) - Original Dixieland One Steo
TTITLE8=Coleman Hawkins acc. By The Ramblers (and his Quartet) - Smiles
TTITLE9=Coleman Hawkins acc. By The Ramblers (and his Quartet) - Something Is Gonna Give Me Away
TTITLE10=Coleman Hawkins And His All Star Jam Band  - Honeysuckle Rose
TTITLE11=Coleman Hawkins And His All Star Jam Band  - Crazy Rhythm
TTITLE12=Coleman Hawkins And His All Star Jam Band  - Out Of Nowhere
TTITLE13=Coleman Hawkins And His All Star Jam Band  - Sweet Georgia Brown
TTITLE14=Coleman Hawkins - Lamentation
TTITLE15=Coleman Hawkins - Devotion
TTITLE16=Coleman Hawkins - Star Dust
TTITLE17=Coleman Hawkins - Well, All Right Then
TTITLE18=Coleman Hawkins Trio - Blues Evermore
TTITLE19=Coleman Hawkins Trio - Dear Old Southland
TTITLE20=Coleman Hawkins Trio - Way Down Yonder In New Orleans
TTITLE21=Coleman Hawkins Trio - I Know That You Know
TTITLE22=Coleman Hawkins Trio - When Buddha Smiles
TTITLE23=Coleman Hawkins Trio - Swinging In The Groove
EXTD=YEAR: 2006
EXTT0=
EXTT1=
EXTT2=
EXTT3=
EXTT4=
EXTT5=
EXTT6=
EXTT7=
EXTT8=
EXTT9=
EXTT10=
EXTT11=
EXTT12=
EXTT13=
EXTT14=
EXTT15=
EXTT16=
EXTT17=
EXTT18=
EXTT19=
EXTT20=
EXTT21=
EXTT22=
EXTT23=
PLAYORDER=
